<svg id="car-check" xmlns="http://www.w3.org/2000/svg" width="155.248" height="148.428" viewBox="0 0 155.248 148.428">
  <g id="XMLID_1_" transform="translate(0 0)">
    <g id="Group_18" data-name="Group 18" transform="translate(0 0)">
      <path id="Path_25" data-name="Path 25" d="M204.848,121.277V130.8a2.608,2.608,0,0,1-2.633,2.615H190.03a2.644,2.644,0,0,1-2.294-1.345l-1.655,5.529,9.515,17.334v.037a2.681,2.681,0,0,1,.3,1.2v23.946a7.754,7.754,0,0,1-7.334,7.7V196.4a9.334,9.334,0,0,1-9.365,9.3H168.857a9.334,9.334,0,0,1-9.365-9.3v-8.555H94.956V196.4a9.334,9.334,0,0,1-9.365,9.3H75.249a9.334,9.334,0,0,1-9.365-9.3v-8.592a7.808,7.808,0,0,1-7.334-7.7V156.168a2.681,2.681,0,0,1,.3-1.2.115.115,0,0,1,.038-.075L68.4,137.564l-1.655-5.529a2.644,2.644,0,0,1-2.294,1.345H52.233a2.608,2.608,0,0,1-2.633-2.615v-9.526a2.608,2.608,0,0,1,2.633-2.615H64.418a2.608,2.608,0,0,1,2.633,2.615v2.615H67.8a2.615,2.615,0,0,1,2.52,1.868l1.2,4,9.628-24.954A13.438,13.438,0,0,1,93.677,96.21h10.23a57.84,57.84,0,0,1-2.445-7.471,74.188,74.188,0,0,1-2.181-19.724,2.605,2.605,0,0,1,1.843-2.428c11.922-3.736,20.835-7.322,25.122-9.115a2.825,2.825,0,0,1,2.068,0c4.25,1.793,13.2,5.379,25.122,9.115a2.605,2.605,0,0,1,1.843,2.428A75.768,75.768,0,0,1,153.1,88.739a57.322,57.322,0,0,1-2.445,7.434h10.229a13.4,13.4,0,0,1,12.524,8.555l9.628,24.954,1.2-4a2.615,2.615,0,0,1,2.52-1.868h.752V121.2a2.608,2.608,0,0,1,2.633-2.615h12.185A2.7,2.7,0,0,1,204.848,121.277Zm-5.265,6.911v-4.3h-6.92v4.3Zm-8.913,51.926V158.82h-7.334a11.109,11.109,0,0,1,0,12.141,11.384,11.384,0,0,1-15.683,3.437,11.218,11.218,0,0,1-3.46-15.578H153.362l-2.745,7.92a2.633,2.633,0,0,1-2.482,1.756H106.314a2.633,2.633,0,0,1-2.482-1.756l-2.745-7.92H90.255a11.33,11.33,0,1,1-19.143.037H63.778v21.331a2.551,2.551,0,0,0,2.557,2.54H188.112A2.721,2.721,0,0,0,190.67,180.114Zm-1.805-26.561-7.183-13.038H72.767l-7.146,13.038ZM183.336,196.4v-8.555H164.757V196.4a4.1,4.1,0,0,0,4.1,4.072H179.2A4.08,4.08,0,0,0,183.336,196.4Zm-3.911-61.116L168.405,106.67a8.177,8.177,0,0,0-7.6-5.193H148.1a39.088,39.088,0,0,1-2.369,3.736h15.043a4.4,4.4,0,0,1,4.1,2.8L172.58,128a2.755,2.755,0,0,1,.188.934,2.608,2.608,0,0,1-2.633,2.615H84.313a2.634,2.634,0,0,1-.94-.187,2.588,2.588,0,0,1-1.5-3.362l7.71-19.986a4.4,4.4,0,0,1,4.1-2.8h15.081a39.077,39.077,0,0,1-2.369-3.736H93.677a8.1,8.1,0,0,0-7.6,5.193L75.061,135.285Zm.451,29.549a6.093,6.093,0,1,0-6.093,6.052A6.071,6.071,0,0,0,179.876,164.835ZM166.3,126.32l-6.13-15.877H141.252a37.189,37.189,0,0,1-13.125,8.331,2.713,2.713,0,0,1-1.88,0,37.527,37.527,0,0,1-13.125-8.331H94.2l-6.13,15.877ZM147.909,87.506a69.343,69.343,0,0,0,2.031-16.474c-10.342-3.325-18.315-6.463-22.716-8.293-4.4,1.83-12.373,4.968-22.716,8.293a71.332,71.332,0,0,0,2.031,16.474c3.31,12.963,10.267,21.7,20.685,26C137.642,109.21,144.6,100.469,147.909,87.506Zm-1.655,75.76,1.542-4.445H106.652l1.542,4.445ZM89.691,196.4v-8.555H71.112V196.4a4.1,4.1,0,0,0,4.1,4.072H85.554A4.08,4.08,0,0,0,89.691,196.4Zm-2.933-31.567a6.093,6.093,0,1,0-6.093,6.052A6.071,6.071,0,0,0,86.757,164.835ZM61.785,128.188v-4.3h-6.92v4.3Z" transform="translate(-49.6 -57.275)" fill="#fff"/>
    </g>
  </g>
  <path id="Path_26" data-name="Path 26" d="M230.857,127.961a2.677,2.677,0,0,0,1.88.79h0a2.677,2.677,0,0,0,1.88-.79l12.561-12.825a2.633,2.633,0,1,0-3.723-3.723l-.038.038-10.681,10.906-4.363-4.513a2.636,2.636,0,0,0-3.911,3.535l.15.15Z" transform="translate(-158.273 -90.569)" fill="#ff9f00"/>
</svg>
