<svg id="Group_15" data-name="Group 15" xmlns="http://www.w3.org/2000/svg" width="98.459" height="75" viewBox="0 0 98.459 75">
  <g id="Group_14" data-name="Group 14">
    <g id="Group_13" data-name="Group 13">
      <path id="Path_23" data-name="Path 23" d="M816.734,789.529H735.581a8.669,8.669,0,0,0-8.655,8.652v57.693a8.67,8.67,0,0,0,8.655,8.655h81.153a8.667,8.667,0,0,0,8.652-8.655V798.181A8.665,8.665,0,0,0,816.734,789.529Zm-1.2,5.768-39.2,39.2L736.8,795.3Zm-82.843,59.384V799.348l27.784,27.546Zm4.08,4.078,27.8-27.8,9.743,9.657a2.881,2.881,0,0,0,4.069-.009l9.5-9.5,27.652,27.652Zm82.843-4.081-27.652-27.649,27.652-27.652Z" transform="translate(-726.926 -789.529)" fill="#fa8a09"/>
    </g>
  </g>
</svg>
