<svg xmlns="http://www.w3.org/2000/svg" width="35" height="35" viewBox="0 0 35 35">
  <path id="facebook" d="M30.285,0H4.718A4.716,4.716,0,0,0,0,4.716V30.284A4.716,4.716,0,0,0,4.718,35h12.61l.021-12.507H14.1a.767.767,0,0,1-.767-.764L13.318,17.7a.767.767,0,0,1,.767-.77h3.243v-3.9c0-4.521,2.761-6.982,6.794-6.982h3.309a.767.767,0,0,1,.767.767v3.4a.767.767,0,0,1-.766.767H25.4c-2.193,0-2.618,1.042-2.618,2.572v3.372H27.6a.767.767,0,0,1,.761.857l-.478,4.032a.767.767,0,0,1-.761.676H22.8L22.783,35h7.5A4.716,4.716,0,0,0,35,30.284V4.716A4.716,4.716,0,0,0,30.285,0Z" transform="translate(-0.002)" fill="#475993"/>
</svg>
