<svg xmlns="http://www.w3.org/2000/svg" xmlns:xlink="http://www.w3.org/1999/xlink" width="35" height="35" viewBox="0 0 35 35">
  <defs>
    <linearGradient id="linear-gradient" x1="0.084" y1="0.916" x2="0.916" y2="0.084" gradientUnits="objectBoundingBox">
      <stop offset="0" stop-color="#ffd600"/>
      <stop offset="0.5" stop-color="#ff0100"/>
      <stop offset="1" stop-color="#d800b9"/>
    </linearGradient>
    <linearGradient id="linear-gradient-2" x1="0.146" y1="0.854" x2="0.854" y2="0.146" gradientUnits="objectBoundingBox">
      <stop offset="0" stop-color="#ff6400"/>
      <stop offset="0.5" stop-color="#ff0100"/>
      <stop offset="1" stop-color="#fd0056"/>
    </linearGradient>
    <linearGradient id="linear-gradient-3" x1="0.146" y1="0.854" x2="0.854" y2="0.146" gradientUnits="objectBoundingBox">
      <stop offset="0" stop-color="#f30072"/>
      <stop offset="1" stop-color="#e50097"/>
    </linearGradient>
  </defs>
  <g id="instagram_1_" data-name="instagram (1)" transform="translate(0 0)">
    <path id="Path_30" data-name="Path 30" d="M34.895,10.285a12.848,12.848,0,0,0-.814-4.248,8.577,8.577,0,0,0-2.018-3.1,8.579,8.579,0,0,0-3.1-2.019A12.846,12.846,0,0,0,24.715.106C22.849.02,22.253,0,17.5,0s-5.349.02-7.215.105A12.849,12.849,0,0,0,6.037.919a8.577,8.577,0,0,0-3.1,2.018,8.578,8.578,0,0,0-2.019,3.1,12.847,12.847,0,0,0-.813,4.248C.02,12.151,0,12.747,0,17.5s.02,5.349.106,7.215a12.845,12.845,0,0,0,.813,4.248,8.576,8.576,0,0,0,2.018,3.1,8.575,8.575,0,0,0,3.1,2.018,12.841,12.841,0,0,0,4.248.814c1.867.085,2.463.105,7.215.105s5.349-.02,7.215-.105a12.842,12.842,0,0,0,4.248-.814,8.947,8.947,0,0,0,5.118-5.118,12.844,12.844,0,0,0,.814-4.248C34.98,22.849,35,22.253,35,17.5s-.02-5.349-.105-7.215Zm-3.15,14.287a9.682,9.682,0,0,1-.6,3.249,5.8,5.8,0,0,1-3.321,3.321,9.683,9.683,0,0,1-3.25.6c-1.845.084-2.4.1-7.071.1s-5.227-.018-7.072-.1a9.686,9.686,0,0,1-3.25-.6,5.423,5.423,0,0,1-2.012-1.309,5.421,5.421,0,0,1-1.309-2.012,9.682,9.682,0,0,1-.6-3.249c-.084-1.845-.1-2.4-.1-7.071s.018-5.226.1-7.072a9.69,9.69,0,0,1,.6-3.25A5.426,5.426,0,0,1,5.167,5.167,5.418,5.418,0,0,1,7.179,3.858a9.681,9.681,0,0,1,3.25-.6c1.845-.084,2.4-.1,7.071-.1h0c4.673,0,5.226.018,7.072.1a9.684,9.684,0,0,1,3.25.6,5.426,5.426,0,0,1,2.012,1.309,5.418,5.418,0,0,1,1.309,2.012,9.674,9.674,0,0,1,.6,3.25c.084,1.845.1,2.4.1,7.071s-.018,5.226-.1,7.072Zm0,0" transform="translate(0 0)" fill="url(#linear-gradient)"/>
    <path id="Path_31" data-name="Path 31" d="M131.4,124.539a6.864,6.864,0,1,0,6.865,6.865A6.864,6.864,0,0,0,131.4,124.539Zm0,11.32a4.456,4.456,0,1,1,4.456-4.456A4.456,4.456,0,0,1,131.4,135.859Zm0,0" transform="translate(-113.904 -113.904)" fill="url(#linear-gradient-2)"/>
    <path id="Path_32" data-name="Path 32" d="M367.589,91.455a2.83,2.83,0,1,1-2.829-2.83A2.83,2.83,0,0,1,367.589,91.455Zm0,0" transform="translate(-338.36 -82.854)" fill="url(#linear-gradient-3)"/>
  </g>
</svg>
