<svg id="Livello_110" data-name="Livello 110" xmlns="http://www.w3.org/2000/svg" width="57.195" height="75" viewBox="0 0 57.195 75">
  <path id="Path_21" data-name="Path 21" d="M338.832,814.75c0,7.53-6.4,13.637-14.3,13.637s-14.3-6.107-14.3-13.637,6.4-13.634,14.3-13.634,14.3,6.1,14.3,13.634m14.835,0c0-15.063-12.8-27.271-28.6-27.271s-28.6,12.208-28.6,27.271a26.431,26.431,0,0,0,6.595,17.42l22.026,30.309,22.349-30.75a27.046,27.046,0,0,0,2.2-3.029l.226-.31h-.039a26.181,26.181,0,0,0,3.836-13.639" transform="translate(-296.472 -787.479)" fill="#fa8a09"/>
</svg>
