<svg xmlns="http://www.w3.org/2000/svg" width="75.003" height="75" viewBox="0 0 75.003 75">
  <path id="Path_22" data-name="Path 22" d="M574.453,846.712a17.642,17.642,0,0,1-.535,3.754,20.966,20.966,0,0,1-1.119,3.649q-1.115,2.663-6.5,5.646a20.635,20.635,0,0,1-9.906,2.718,20.963,20.963,0,0,1-2.8-.185,22.975,22.975,0,0,1-3.064-.667q-1.7-.48-2.529-.773t-2.958-1.093q-2.127-.8-2.609-.958a48.3,48.3,0,0,1-9.321-4.421,89.528,89.528,0,0,1-25.57-25.57,48.31,48.31,0,0,1-4.421-9.321q-.159-.48-.958-2.609t-1.093-2.958q-.294-.826-.773-2.529a22.917,22.917,0,0,1-.664-3.064,19.71,19.71,0,0,1,2.529-12.7q2.981-5.382,5.646-6.5a20.97,20.97,0,0,1,3.649-1.119,17.615,17.615,0,0,1,3.754-.532,3.006,3.006,0,0,1,1.119.159q.96.317,2.823,4.048.587,1.012,1.6,2.876t1.865,3.384c.566,1.011,1.119,1.961,1.651,2.85.106.14.418.585.931,1.331a14.735,14.735,0,0,1,1.146,1.892,3.468,3.468,0,0,1,.373,1.516A4.416,4.416,0,0,1,525.2,808.2a25.613,25.613,0,0,1-3.3,2.929,32.235,32.235,0,0,0-3.3,2.823,4.057,4.057,0,0,0-1.519,2.45,3.607,3.607,0,0,0,.267,1.2,11.362,11.362,0,0,0,.453,1.093q.187.373.746,1.278t.611,1.013a52.795,52.795,0,0,0,21.786,21.786c.071.034.41.241,1.013.614s1.029.619,1.278.744a11.667,11.667,0,0,0,1.093.453,3.545,3.545,0,0,0,1.2.267,4.058,4.058,0,0,0,2.45-1.519,31.877,31.877,0,0,0,2.823-3.3,25.8,25.8,0,0,1,2.929-3.3,4.415,4.415,0,0,1,2.664-1.519,3.459,3.459,0,0,1,1.516.373,14.745,14.745,0,0,1,1.892,1.146q1.119.774,1.331.931,1.334.8,2.852,1.651t3.381,1.865q1.865,1.012,2.876,1.6,3.731,1.866,4.048,2.823A3,3,0,0,1,574.453,846.712Z" transform="translate(-499.45 -787.479)" fill="#fa8a09"/>
</svg>
