<?xml version="1.0" encoding="UTF-8" standalone="no"?>
<svg
   xmlns:dc="http://purl.org/dc/elements/1.1/"
   xmlns:cc="http://creativecommons.org/ns#"
   xmlns:rdf="http://www.w3.org/1999/02/22-rdf-syntax-ns#"
   xmlns:svg="http://www.w3.org/2000/svg"
   xmlns="http://www.w3.org/2000/svg"
   xmlns:sodipodi="http://sodipodi.sourceforge.net/DTD/sodipodi-0.dtd"
   xmlns:inkscape="http://www.inkscape.org/namespaces/inkscape"
   id="Layer_3"
   enable-background="new 0 0 64 64"
   height="155"
   viewBox="0 0 19.375 19.375"
   width="155"
   version="1.1"
   sodipodi:docname="car_wash.svg"
   inkscape:version="0.92.4 (5da689c313, 2019-01-14)">
  <metadata
     id="metadata23">
    <rdf:RDF>
      <cc:Work
         rdf:about="">
        <dc:format>image/svg+xml</dc:format>
        <dc:type
           rdf:resource="http://purl.org/dc/dcmitype/StillImage" />
        <dc:title></dc:title>
      </cc:Work>
    </rdf:RDF>
  </metadata>
  <defs
     id="defs21" />
  <sodipodi:namedview
     pagecolor="#ffffff"
     bordercolor="#666666"
     borderopacity="1"
     objecttolerance="10"
     gridtolerance="10"
     guidetolerance="10"
     inkscape:pageopacity="0"
     inkscape:pageshadow="2"
     inkscape:window-width="1366"
     inkscape:window-height="705"
     id="namedview19"
     showgrid="false"
     inkscape:zoom="1.3037281"
     inkscape:cx="12.828097"
     inkscape:cy="130.35721"
     inkscape:window-x="-8"
     inkscape:window-y="86"
     inkscape:window-maximized="1"
     inkscape:current-layer="Layer_3" />
  <path
     d="M 18.155242,6.058468 H 19.0625 V 5.453629 H 18.357863 L 16.93498,1.997883 C 16.513105,0.974194 15.525403,0.3125 14.418246,0.3125 H 9.491835 c -0.9269158,0 -1.7815529,0.464819 -2.2853835,1.242944 l -2.55,3.940826 -4.1243951,1.178831 C 0.4020161,6.711996 0.3125,6.830847 0.3125,6.965726 v 3.931452 c 0,0.166935 0.1351814,0.302419 0.3024194,0.302419 h 1.5299394 c 0.1509073,1.35877 1.305242,2.419355 2.7039314,2.419355 1.3986895,0 2.5530242,-1.060585 2.7039315,-2.419355 h 0.9650201 l 0.1633065,0.245262 c 0.4605846,0.690726 0.7040327,1.494859 0.7040327,2.325302 0,0.830444 -0.2434481,1.634577 -0.7040327,2.325303 l -0.2207662,0.331451 c -0.1862903,0.279436 -0.2845766,0.604839 -0.2845766,0.940222 -3.024e-4,0.934778 0.7602823,1.695363 1.6947585,1.695363 0.335685,0 0.661088,-0.09859 0.940221,-0.284577 l 0.205645,-0.136996 c 0.339013,-0.225907 0.705847,-0.403125 1.090222,-0.534375 V 19.0625 h 0.604839 v -1.209677 c 0,-0.101008 -0.0505,-0.195363 -0.134577,-0.251613 l -1.679637,-1.119859 v -1.047883 c 0,-0.166633 0.135484,-0.30242 0.30242,-0.30242 0.166935,0 0.302419,0.135787 0.302419,0.30242 v 0.907258 h 0.604839 v -0.907258 -3.024194 c 0,-0.166633 0.135484,-0.302419 0.302419,-0.302419 0.166935,0 0.302419,0.135786 0.302419,0.302419 v 0.604839 1.512097 h 0.604839 v -1.512097 -0.604839 -0.604838 c 0,-0.166633 0.135484,-0.30242 0.302419,-0.30242 0.166936,0 0.30242,0.135787 0.30242,0.30242 v 0.604838 0.604839 1.512097 h 0.604838 v -1.512097 -0.604839 c 0,-0.166633 0.135484,-0.302419 0.30242,-0.302419 0.166935,0 0.302419,0.135786 0.302419,0.302419 v 1.209678 0.907258 h 0.604839 v -0.907258 c 0,-0.166633 0.135484,-0.30242 0.302419,-0.30242 0.166936,0 0.30242,0.135787 0.30242,0.30242 v 3.201411 l -0.51623,0.51623 c -0.05685,0.05655 -0.08861,0.133669 -0.08861,0.21381 V 19.0625 h 0.604839 v -0.342339 l 0.08619,0.05746 c 0.279436,0.18629 0.604536,0.284879 0.940524,0.284879 0.934476,0 1.695061,-0.760585 1.695061,-1.69506 0,-0.335686 -0.09829,-0.660787 -0.284577,-0.940222 l -0.220766,-0.331452 c -0.460887,-0.691028 -0.704335,-1.495161 -0.704335,-2.325605 0,-0.830443 0.243448,-1.634576 0.704033,-2.325302 l 0.220766,-0.331452 c 0.18629,-0.279435 0.284576,-0.604838 0.284576,-0.940221 3.03e-4,-0.934779 -0.760282,-1.695363 -1.694758,-1.695363 -0.335685,0 -0.661088,0.09859 -0.940222,0.284576 L 16.221572,8.899395 C 15.448286,9.41502 14.548286,9.6875 13.618951,9.6875 c -0.929334,0 -1.829334,-0.27248 -2.602318,-0.787802 L 10.810988,8.762702 C 10.531552,8.576412 10.206451,8.477823 9.870464,8.477823 c -0.9344762,0 -1.6950609,0.760584 -1.6950609,1.69506 0,0.143649 0.021774,0.284577 0.056855,0.421875 H 7.5527217 C 7.4018144,9.235988 6.2474797,8.175403 4.8487902,8.175403 c -1.3986894,0 -2.5530241,1.060585 -2.7039314,2.419355 H 0.9173387 V 8.780242 h 0.9072581 c 0.1672379,0 0.3024193,-0.135484 0.3024193,-0.302419 V 6.848085 L 4.9316532,6.046674 C 5.0021172,6.026714 5.0629031,5.981654 5.1025201,5.920262 L 7.7142136,1.884174 C 8.1061491,1.27873 8.7705644,0.917339 9.491835,0.917339 h 4.926411 c 0.86129,0 1.629738,0.514718 1.95756,1.310988 l 1.5,3.642943 c 0.04627,0.113105 0.156956,0.187198 0.279436,0.187198 z M 9.870464,9.082661 c 0.215927,0 0.424899,0.06321 0.604838,0.182964 l 0.205645,0.136996 c 0.873085,0.582157 1.888912,0.889718 2.938004,0.889718 1.049093,0 2.06492,-0.307561 2.938004,-0.889415 l 0.205646,-0.136996 c 0.179939,-0.119758 0.388911,-0.182964 0.604838,-0.182964 0.60121,-3.03e-4 1.090222,0.48871 1.090222,1.089919 0,0.215928 -0.06321,0.425202 -0.182964,0.604839 l -0.220766,0.331452 c -0.527419,0.790524 -0.805947,1.710483 -0.805947,2.660987 0,0.950504 0.278528,1.870464 0.805645,2.660988 l 0.220766,0.331452 c 0.119758,0.179637 0.182964,0.388911 0.182964,0.604839 3.02e-4,0.601209 -0.48871,1.090221 -1.08992,1.090221 -0.215927,0 -0.424899,-0.06321 -0.604838,-0.182963 l -0.205646,-0.136996 c -0.07046,-0.04687 -0.143951,-0.08831 -0.216229,-0.131553 v -0.330242 l 0.516229,-0.51623 c 0.05686,-0.05685 0.08861,-0.133971 0.08861,-0.214112 v -3.326613 c 0,-0.500202 -0.407056,-0.907258 -0.907258,-0.907258 -0.106451,0 -0.207459,0.02177 -0.302419,0.05564 v -0.358065 c 0,-0.500201 -0.407057,-0.907258 -0.907258,-0.907258 -0.119456,0 -0.232863,0.0245 -0.3375,0.06653 -0.104335,-0.385585 -0.453932,-0.671371 -0.872178,-0.671371 -0.418246,0 -0.76754,0.285786 -0.872177,0.671371 -0.104637,-0.04204 -0.218044,-0.06653 -0.3375,-0.06653 -0.500202,0 -0.907258,0.407057 -0.907258,0.907258 v 2.172581 c -0.09496,-0.03387 -0.195968,-0.05564 -0.302419,-0.05564 -0.500202,0 -0.907258,0.407056 -0.907258,0.907258 v 1.209677 c 0,0.101008 0.0505,0.195363 0.134576,0.251613 l 1.150101,0.766633 c -0.312097,0.130645 -0.613004,0.287299 -0.896069,0.476008 l -0.205645,0.136996 c -0.179939,0.119758 -0.388911,0.182964 -0.604838,0.182964 -0.6012101,3.02e-4 -1.0902222,-0.48871 -1.0902222,-1.089919 0,-0.215928 0.063206,-0.425202 0.1829637,-0.604839 L 9.1839726,16.431149 C 9.711392,15.640625 9.98992,14.720665 9.98992,13.770161 c 0,-0.950504 -0.278528,-1.870463 -0.8056449,-2.660987 L 8.9635079,10.777722 C 8.8437499,10.598085 8.7805442,10.388811 8.7805442,10.172883 8.7802418,9.571674 9.2692539,9.082661 9.870464,9.082661 Z M 4.8487902,8.780242 c 1.1670363,0 2.1169355,0.949597 2.1169355,2.116936 0,1.167338 -0.9498992,2.116935 -2.1169355,2.116935 -1.1670362,0 -2.1169354,-0.949597 -2.1169354,-2.116935 0,-1.167339 0.9498992,-2.116936 2.1169354,-2.116936 z M 1.5221774,8.175403 H 0.9173387 V 7.19375 L 1.5221774,7.021069 Z"
     id="path2"
     style="fill:#ffffff;stroke-width:0.99999994"
     inkscape:connector-curvature="0" />
  <path
     d="m 4.8487902,12.409274 c 0.8337702,0 1.5120968,-0.678326 1.5120968,-1.512096 0,-0.833771 -0.6783266,-1.512097 -1.5120968,-1.512097 -0.8337701,0 -1.5120967,0.678326 -1.5120967,1.512097 0,0.83377 0.6783266,1.512096 1.5120967,1.512096 z m 0,-2.419354 c 0.5002017,0 0.9072581,0.407056 0.9072581,0.907258 0,0.500201 -0.4070564,0.907258 -0.9072581,0.907258 -0.5002016,0 -0.907258,-0.407057 -0.907258,-0.907258 0,-0.500202 0.4070564,-0.907258 0.907258,-0.907258 z"
     id="path4"
     style="fill:#ffffff;stroke-width:0.99999994"
     inkscape:connector-curvature="0" />
  <path
     d="m 16.892338,5.927218 c 0.05655,-0.08196 0.06895,-0.186593 0.03296,-0.279738 L 15.711689,2.491432 C 15.488504,1.911694 14.921165,1.522178 14.300298,1.522178 H 9.758564 c -0.528931,0 -1.0103827,0.269153 -1.2880036,0.719758 L 6.4056411,5.597581 c -0.05746,0.09345 -0.059879,0.210181 -0.00635,0.306048 0.053528,0.09587 0.1545362,0.154839 0.264012,0.154839 h 9.9798389 c 0.0995,0 0.192943,-0.04899 0.249193,-0.13125 z M 8.985887,2.558871 C 9.1522176,2.288508 9.44133,2.127016 9.758568,2.127016 h 1.743448 V 5.453629 H 7.2043346 Z m 3.120968,2.894758 V 2.127016 h 2.193447 c 0.372278,0 0.712803,0.233771 0.846774,0.581553 l 1.055746,2.74506 z"
     id="path6"
     style="fill:#ffffff;stroke-width:0.99999994"
     inkscape:connector-curvature="0" />
  <path
     d="m 10.897177,6.663307 h 1.209678 v 0.604838 h -1.209678 z"
     id="path8"
     style="fill:#ffffff;stroke-width:0.99999994"
     inkscape:connector-curvature="0" />
  <path
     d="m 15.735887,6.663307 h 1.209677 v 0.604838 h -1.209677 z"
     id="path10"
     style="fill:#ffffff;stroke-width:0.99999994"
     inkscape:connector-curvature="0" />
  <path
     d="m 7.268145,16.945565 c -0.667137,0 -1.2096774,-0.542541 -1.2096774,-1.209678 0,-0.166935 -0.1351814,-0.302419 -0.3024193,-0.302419 -0.1672379,0 -0.3024194,0.135484 -0.3024194,0.302419 0,0.667137 -0.5425403,1.209678 -1.2096774,1.209678 -0.1672379,0 -0.3024193,0.135483 -0.3024193,0.302419 0,0.166935 0.1351814,0.302419 0.3024193,0.302419 0.6671371,0 1.2096774,0.542541 1.2096774,1.209678 0,0.166935 0.1351815,0.302419 0.3024194,0.302419 0.1672379,0 0.3024193,-0.135484 0.3024193,-0.302419 0,-0.667137 0.5425404,-1.209678 1.2096774,-1.209678 0.167238,0 0.3024194,-0.135484 0.3024194,-0.302419 0,-0.166936 -0.1351814,-0.302419 -0.3024194,-0.302419 z m -1.5120967,0.8126 C 5.6217741,17.556149 5.447883,17.382561 5.2458669,17.247984 5.447883,17.11371 5.6214717,16.939819 5.7560483,16.737803 c 0.1342742,0.202016 0.3081653,0.375604 0.5101814,0.510181 -0.2020161,0.134274 -0.3759072,0.308165 -0.5101814,0.510181 z"
     id="path12"
     style="fill:#ffffff;stroke-width:0.99999994"
     inkscape:connector-curvature="0" />
  <path
     d="m 3.6391128,14.828629 c -0.667137,0 -1.2096774,-0.54254 -1.2096774,-1.209677 0,-0.166936 -0.1351814,-0.30242 -0.3024193,-0.30242 -0.1672379,0 -0.3024193,0.135484 -0.3024193,0.30242 0,0.667137 -0.5425404,1.209677 -1.2096774,1.209677 -0.167238,0 -0.3024194,0.135484 -0.3024194,0.302419 0,0.166936 0.1351814,0.30242 0.3024194,0.30242 0.667137,0 1.2096774,0.54254 1.2096774,1.209677 0,0.166936 0.1351814,0.30242 0.3024193,0.30242 0.1672379,0 0.3024193,-0.135484 0.3024193,-0.30242 0,-0.667137 0.5425404,-1.209677 1.2096774,-1.209677 0.167238,0 0.3024194,-0.135484 0.3024194,-0.30242 0,-0.166935 -0.1351814,-0.302419 -0.3024194,-0.302419 z M 2.1270161,15.64123 C 1.9927419,15.439214 1.8188508,15.265323 1.6168347,15.131048 c 0.2020161,-0.134274 0.3759072,-0.308165 0.5101814,-0.510181 0.1342742,0.202016 0.3081653,0.375907 0.5101814,0.510181 -0.2020161,0.134275 -0.3759072,0.308166 -0.5101814,0.510182 z"
     id="path14"
     style="fill:#ffffff;stroke-width:0.99999994"
     inkscape:connector-curvature="0" />
  <path
     d="m 0.6149194,2.429436 c 0.667137,0 1.2096774,0.54254 1.2096774,1.209677 0,0.166936 0.1351814,0.30242 0.3024193,0.30242 0.1672379,0 0.3024193,-0.135484 0.3024193,-0.30242 0,-0.667137 0.5425404,-1.209677 1.2096774,-1.209677 0.167238,0 0.3024194,-0.135484 0.3024194,-0.30242 0,-0.166935 -0.1351814,-0.302419 -0.3024194,-0.302419 -0.667137,0 -1.2096774,-0.54254 -1.2096774,-1.209677 0,-0.166936 -0.1351814,-0.30242 -0.3024193,-0.30242 -0.1672379,0 -0.3024193,0.135484 -0.3024193,0.30242 0,0.667137 -0.5425404,1.209677 -1.2096774,1.209677 -0.167238,0 -0.3024194,0.135484 -0.3024194,0.302419 0,0.166936 0.1351814,0.30242 0.3024194,0.30242 z M 2.1270161,1.616835 C 2.2612903,1.818851 2.4351814,1.992742 2.6371975,2.127016 2.4351814,2.261291 2.2612903,2.435182 2.1270161,2.637198 1.9927419,2.435182 1.8188508,2.261291 1.6168347,2.127016 1.8188508,1.992742 1.9927419,1.818851 2.1270161,1.616835 Z"
     id="path16"
     style="fill:#ffffff;stroke-width:0.99999994"
     inkscape:connector-curvature="0" />
</svg>
