<?xml version="1.0" encoding="UTF-8" standalone="no"?>
<svg
   xmlns:dc="http://purl.org/dc/elements/1.1/"
   xmlns:cc="http://creativecommons.org/ns#"
   xmlns:rdf="http://www.w3.org/1999/02/22-rdf-syntax-ns#"
   xmlns:svg="http://www.w3.org/2000/svg"
   xmlns="http://www.w3.org/2000/svg"
   xmlns:sodipodi="http://sodipodi.sourceforge.net/DTD/sodipodi-0.dtd"
   xmlns:inkscape="http://www.inkscape.org/namespaces/inkscape"
   id="icons"
   enable-background="new 0 0 64 64"
   height="155"
   viewBox="0 0 19.375 19.375"
   width="155"
   version="1.1"
   sodipodi:docname="polisher.svg"
   inkscape:version="0.92.4 (5da689c313, 2019-01-14)">
  <metadata
     id="metadata165">
    <rdf:RDF>
      <cc:Work
         rdf:about="">
        <dc:format>image/svg+xml</dc:format>
        <dc:type
           rdf:resource="http://purl.org/dc/dcmitype/StillImage" />
        <dc:title></dc:title>
      </cc:Work>
    </rdf:RDF>
  </metadata>
  <defs
     id="defs163" />
  <sodipodi:namedview
     pagecolor="#ffffff"
     bordercolor="#666666"
     borderopacity="1"
     objecttolerance="10"
     gridtolerance="10"
     guidetolerance="10"
     inkscape:pageopacity="0"
     inkscape:pageshadow="2"
     inkscape:window-width="1366"
     inkscape:window-height="705"
     id="namedview161"
     showgrid="false"
     inkscape:zoom="1.84375"
     inkscape:cx="45.669009"
     inkscape:cy="106.15157"
     inkscape:window-x="-8"
     inkscape:window-y="86"
     inkscape:window-maximized="1"
     inkscape:current-layer="icons" />
  <g
     id="g158"
     style="fill:#ffffff;stroke-width:3.41328526"
     transform="matrix(0.29297287,0,0,0.29297287,0.31261125,0.3234062)">
    <g
       id="g74"
       style="fill:#ffffff;stroke-width:3.41328526">
      <g
         id="g4"
         style="fill:#ffffff;stroke-width:3.41328526">
        <path
           d="m 62.001,43.004 c -0.553,0 -1,-0.447 -1,-1 0,-2.454 -1.753,-4.527 -4.168,-4.931 -0.544,-0.091 -0.912,-0.606 -0.821,-1.151 0.091,-0.544 0.604,-0.916 1.151,-0.821 3.383,0.565 5.838,3.468 5.838,6.903 0,0.553 -0.447,1 -1,1 z"
           id="path2"
           style="fill:#ffffff;stroke-width:3.41328526"
           inkscape:connector-curvature="0" />
      </g>
      <g
         id="g8"
         style="fill:#ffffff;stroke-width:3.41328526">
        <path
           d="m 62.001,45.002 c -0.553,0 -1,-0.447 -1,-1 v -1.998 c 0,-0.553 0.447,-1 1,-1 0.553,0 1,0.447 1,1 v 1.998 c 0,0.553 -0.447,1 -1,1 z"
           id="path6"
           style="fill:#ffffff;stroke-width:3.41328526"
           inkscape:connector-curvature="0" />
      </g>
      <g
         id="g12"
         style="fill:#ffffff;stroke-width:3.41328526">
        <path
           d="m 63,50.002 c -0.553,0 -1,-0.447 -1,-1 v -4 h -1 c -0.553,0 -1,-0.447 -1,-1 0,-0.553 0.447,-1 1,-1 h 2 c 0.553,0 1,0.447 1,1 v 5 c 0,0.553 -0.447,1 -1,1 z"
           id="path10"
           style="fill:#ffffff;stroke-width:3.41328526"
           inkscape:connector-curvature="0" />
      </g>
      <g
         id="g16"
         style="fill:#ffffff;stroke-width:3.41328526">
        <path
           d="M 44.173,50.002 H 19.826 c -0.553,0 -1,-0.447 -1,-1 0,-0.553 0.447,-1 1,-1 h 24.347 c 0.553,0 1,0.447 1,1 0,0.553 -0.447,1 -1,1 z"
           id="path14"
           style="fill:#ffffff;stroke-width:3.41328526"
           inkscape:connector-curvature="0" />
      </g>
      <g
         id="g20"
         style="fill:#ffffff;stroke-width:3.41328526">
        <path
           d="m 5.003,50.002 c -0.208,0 -0.419,-0.065 -0.599,-0.2 l -4.004,-3 c -0.442,-0.331 -0.532,-0.957 -0.2,-1.399 0.33,-0.44 0.956,-0.532 1.399,-0.2 l 4.004,3 c 0.442,0.331 0.532,0.957 0.2,1.399 -0.196,0.261 -0.495,0.4 -0.8,0.4 z"
           id="path18"
           style="fill:#ffffff;stroke-width:3.41328526"
           inkscape:connector-curvature="0" />
      </g>
      <g
         id="g24"
         style="fill:#ffffff;stroke-width:3.41328526">
        <path
           d="m 1,47.002 c -0.553,0 -1,-0.447 -1,-1 V 33.998 c 0,-0.553 0.447,-1 1,-1 0.553,0 1,0.447 1,1 v 12.004 c 0,0.553 -0.447,1 -1,1 z"
           id="path22"
           style="fill:#ffffff;stroke-width:3.41328526"
           inkscape:connector-curvature="0" />
      </g>
      <g
         id="g28"
         style="fill:#ffffff;stroke-width:3.41328526">
        <path
           d="M 6.002,34.998 H 1 c -0.553,0 -1,-0.447 -1,-1 0,-0.553 0.447,-1 1,-1 h 5.002 c 0.553,0 1,0.447 1,1 0,0.553 -0.447,1 -1,1 z"
           id="path26"
           style="fill:#ffffff;stroke-width:3.41328526"
           inkscape:connector-curvature="0" />
      </g>
      <g
         id="g32"
         style="fill:#ffffff;stroke-width:3.41328526">
        <path
           d="m 46.001,35.999 c -0.235,0 -0.473,-0.083 -0.663,-0.252 -0.087,-0.078 -8.862,-7.751 -19.343,-7.751 -10.539,0 -19.291,6.723 -19.379,6.791 -0.437,0.338 -1.063,0.261 -1.403,-0.175 -0.339,-0.436 -0.261,-1.063 0.175,-1.403 0.378,-0.294 9.388,-7.213 20.607,-7.213 11.256,0 20.292,7.919 20.671,8.256 0.413,0.366 0.45,0.998 0.083,1.411 -0.197,0.222 -0.472,0.336 -0.748,0.336 z"
           id="path30"
           style="fill:#ffffff;stroke-width:3.41328526"
           inkscape:connector-curvature="0" />
      </g>
      <g
         id="g36"
         style="fill:#ffffff;stroke-width:3.41328526">
        <path
           d="m 57.002,37.087 c -0.032,0 -0.065,-0.002 -0.099,-0.005 L 45.904,35.998 c -0.55,-0.054 -0.952,-0.544 -0.897,-1.093 0.055,-0.549 0.534,-0.946 1.093,-0.897 l 10.999,1.084 c 0.55,0.054 0.952,0.544 0.897,1.093 -0.051,0.516 -0.485,0.902 -0.994,0.902 z"
           id="path34"
           style="fill:#ffffff;stroke-width:3.41328526"
           inkscape:connector-curvature="0" />
      </g>
      <g
         id="g40"
         style="fill:#ffffff;stroke-width:3.41328526">
        <path
           d="M 46.002,35.999 H 24.004 c -0.553,0 -1,-0.447 -1,-1 0,-0.553 0.447,-1 1,-1 h 21.998 c 0.553,0 1,0.447 1,1 0,0.553 -0.447,1 -1,1 z"
           id="path38"
           style="fill:#ffffff;stroke-width:3.41328526"
           inkscape:connector-curvature="0" />
      </g>
      <g
         id="g44"
         style="fill:#ffffff;stroke-width:3.41328526">
        <path
           d="m 24.003,35.999 c -0.139,0 -0.28,-0.029 -0.415,-0.091 L 12.586,30.882 c -0.502,-0.229 -0.723,-0.823 -0.493,-1.325 0.23,-0.502 0.82,-0.724 1.325,-0.494 L 24.42,34.09 c 0.502,0.229 0.723,0.822 0.493,1.325 -0.168,0.367 -0.53,0.584 -0.91,0.584 z"
           id="path42"
           style="fill:#ffffff;stroke-width:3.41328526"
           inkscape:connector-curvature="0" />
      </g>
      <g
         id="g48"
         style="fill:#ffffff;stroke-width:3.41328526">
        <path
           d="m 24.004,35.999 c -0.553,0 -1,-0.447 -1,-1 v -7.918 c 0,-0.552 0.447,-1 1,-1 0.553,0 1,0.448 1,1 v 7.918 c 0,0.553 -0.447,1 -1,1 z"
           id="path46"
           style="fill:#ffffff;stroke-width:3.41328526"
           inkscape:connector-curvature="0" />
      </g>
      <g
         id="g52"
         style="fill:#ffffff;stroke-width:3.41328526">
        <path
           d="m 13.5,55.002 c -4.136,0 -7.5,-3.364 -7.5,-7.5 0,-4.136 3.364,-7.5 7.5,-7.5 4.136,0 7.5,3.364 7.5,7.5 0,4.136 -3.364,7.5 -7.5,7.5 z m 0,-13 c -3.032,0 -5.5,2.468 -5.5,5.5 0,3.032 2.468,5.5 5.5,5.5 3.032,0 5.5,-2.468 5.5,-5.5 0,-3.032 -2.468,-5.5 -5.5,-5.5 z"
           id="path50"
           style="fill:#ffffff;stroke-width:3.41328526"
           inkscape:connector-curvature="0" />
      </g>
      <g
         id="g56"
         style="fill:#ffffff;stroke-width:3.41328526">
        <path
           d="m 13.5,51.002 c -1.93,0 -3.5,-1.57 -3.5,-3.5 0,-1.93 1.57,-3.5 3.5,-3.5 1.93,0 3.5,1.57 3.5,3.5 0,1.93 -1.57,3.5 -3.5,3.5 z m 0,-5 c -0.827,0 -1.5,0.673 -1.5,1.5 0,0.827 0.673,1.5 1.5,1.5 0.827,0 1.5,-0.673 1.5,-1.5 0,-0.827 -0.673,-1.5 -1.5,-1.5 z"
           id="path54"
           style="fill:#ffffff;stroke-width:3.41328526"
           inkscape:connector-curvature="0" />
      </g>
      <g
         id="g60"
         style="fill:#ffffff;stroke-width:3.41328526">
        <path
           d="m 50.499,55.002 c -4.136,0 -7.5,-3.364 -7.5,-7.5 0,-4.136 3.364,-7.5 7.5,-7.5 4.136,0 7.5,3.364 7.5,7.5 0,4.136 -3.364,7.5 -7.5,7.5 z m 0,-13 c -3.032,0 -5.5,2.468 -5.5,5.5 0,3.032 2.468,5.5 5.5,5.5 3.032,0 5.5,-2.468 5.5,-5.5 0,-3.032 -2.468,-5.5 -5.5,-5.5 z"
           id="path58"
           style="fill:#ffffff;stroke-width:3.41328526"
           inkscape:connector-curvature="0" />
      </g>
      <g
         id="g64"
         style="fill:#ffffff;stroke-width:3.41328526">
        <path
           d="m 50.495,51.002 c -1.93,0 -3.5,-1.57 -3.5,-3.5 0,-1.93 1.57,-3.5 3.5,-3.5 1.93,0 3.5,1.57 3.5,3.5 0,1.93 -1.57,3.5 -3.5,3.5 z m 0,-5 c -0.827,0 -1.5,0.673 -1.5,1.5 0,0.827 0.673,1.5 1.5,1.5 0.827,0 1.5,-0.673 1.5,-1.5 0,-0.827 -0.673,-1.5 -1.5,-1.5 z"
           id="path62"
           style="fill:#ffffff;stroke-width:3.41328526"
           inkscape:connector-curvature="0" />
      </g>
      <g
         id="g68"
         style="fill:#ffffff;stroke-width:3.41328526">
        <path
           d="M 7.175,50.002 H 5.004 c -0.553,0 -1,-0.447 -1,-1 0,-0.553 0.447,-1 1,-1 h 2.171 c 0.553,0 1,0.447 1,1 0,0.553 -0.447,1 -1,1 z"
           id="path66"
           style="fill:#ffffff;stroke-width:3.41328526"
           inkscape:connector-curvature="0" />
      </g>
      <g
         id="g72"
         style="fill:#ffffff;stroke-width:3.41328526">
        <path
           d="m 63,50.002 h -6.176 c -0.553,0 -1,-0.447 -1,-1 0,-0.553 0.447,-1 1,-1 H 63 c 0.553,0 1,0.447 1,1 0,0.553 -0.447,1 -1,1 z"
           id="path70"
           style="fill:#ffffff;stroke-width:3.41328526"
           inkscape:connector-curvature="0" />
      </g>
    </g>
    <g
       id="g138"
       style="fill:#ffffff;stroke-width:3.41328526">
      <g
         id="g100"
         style="fill:#ffffff;stroke-width:3.41328526">
        <g
           id="g78"
           style="fill:#ffffff;stroke-width:3.41328526">
          <path
             d="m 30.002,22.998 c -3.859,0 -7,-3.14 -7,-7 0,-3.86 3.141,-7 7,-7 2.49,0 4.813,1.34 6.061,3.497 0.277,0.478 0.113,1.09 -0.364,1.367 -0.48,0.274 -1.091,0.112 -1.366,-0.365 -0.893,-1.542 -2.552,-2.499 -4.33,-2.499 -2.757,0 -5,2.243 -5,5 0,2.757 2.243,5 5,5 1.779,0 3.438,-0.958 4.331,-2.5 0.274,-0.479 0.885,-0.644 1.366,-0.365 0.478,0.277 0.642,0.888 0.364,1.366 -1.249,2.159 -3.571,3.499 -6.062,3.499 z"
             id="path76"
             style="fill:#ffffff;stroke-width:3.41328526"
             inkscape:connector-curvature="0" />
        </g>
        <g
           id="g82"
           style="fill:#ffffff;stroke-width:3.41328526">
          <path
             d="m 30.002,19.998 c -2.206,0 -4,-1.794 -4,-4 0,-2.206 1.794,-4 4,-4 0.553,0 1,0.448 1,1 0,0.552 -0.447,1 -1,1 -1.103,0 -2,0.897 -2,2 0,1.103 0.897,2 2,2 0.553,0 1,0.448 1,1 0,0.552 -0.447,1 -1,1 z"
             id="path80"
             style="fill:#ffffff;stroke-width:3.41328526"
             inkscape:connector-curvature="0" />
        </g>
        <g
           id="g86"
           style="fill:#ffffff;stroke-width:3.41328526">
          <path
             d="m 38.001,19.998 h -7.999 c -0.553,0 -1,-0.448 -1,-1 0,-0.552 0.447,-1 1,-1 h 7.999 c 0.553,0 1,0.448 1,1 0,0.552 -0.447,1 -1,1 z"
             id="path84"
             style="fill:#ffffff;stroke-width:3.41328526"
             inkscape:connector-curvature="0" />
        </g>
        <g
           id="g90"
           style="fill:#ffffff;stroke-width:3.41328526">
          <path
             d="m 38.001,13.998 h -7.999 c -0.553,0 -1,-0.448 -1,-1 0,-0.552 0.447,-1 1,-1 h 7.999 c 0.553,0 1,0.448 1,1 0,0.552 -0.447,1 -1,1 z"
             id="path88"
             style="fill:#ffffff;stroke-width:3.41328526"
             inkscape:connector-curvature="0" />
        </g>
        <g
           id="g94"
           style="fill:#ffffff;stroke-width:3.41328526">
          <path
             d="m 38.001,19.998 c -0.553,0 -1,-0.448 -1,-1 v -6 c 0,-0.552 0.447,-1 1,-1 0.553,0 1,0.448 1,1 v 6 c 0,0.552 -0.447,1 -1,1 z"
             id="path92"
             style="fill:#ffffff;stroke-width:3.41328526"
             inkscape:connector-curvature="0" />
        </g>
        <g
           id="g98"
           style="fill:#ffffff;stroke-width:3.41328526">
          <path
             d="m 44.001,18.998 h -6 c -0.553,0 -1,-0.448 -1,-1 v -4 c 0,-0.552 0.447,-1 1,-1 h 6 c 0.553,0 1,0.448 1,1 v 4 c 0,0.552 -0.447,1 -1,1 z m -5,-2 h 4 v -2 h -4 z"
             id="path96"
             style="fill:#ffffff;stroke-width:3.41328526"
             inkscape:connector-curvature="0" />
        </g>
      </g>
      <g
         id="g104"
         style="fill:#ffffff;stroke-width:3.41328526">
        <path
           d="m 49,16.998 h -4.999 c -0.553,0 -1,-0.448 -1,-1 0,-0.552 0.447,-1 1,-1 H 49 c 0.553,0 1,0.448 1,1 0,0.552 -0.447,1 -1,1 z"
           id="path102"
           style="fill:#ffffff;stroke-width:3.41328526"
           inkscape:connector-curvature="0" />
      </g>
      <g
         id="g108"
         style="fill:#ffffff;stroke-width:3.41328526">
        <path
           d="m 51,18.998 c -0.553,0 -1,-0.448 -1,-1 0,-0.551 -0.448,-1 -1,-1 -0.553,0 -1,-0.448 -1,-1 0,-0.552 0.447,-1 1,-1 1.654,0 3,1.346 3,3 0,0.552 -0.447,1 -1,1 z"
           id="path106"
           style="fill:#ffffff;stroke-width:3.41328526"
           inkscape:connector-curvature="0" />
      </g>
      <g
         id="g112"
         style="fill:#ffffff;stroke-width:3.41328526">
        <path
           d="m 53,30.004 c -1.654,0 -3,-1.346 -3,-3.001 0,-0.552 0.447,-1 1,-1 0.553,0 1,0.448 1,1 0,0.552 0.448,1.001 1,1.001 0.552,0 1,-0.449 1,-1.001 0,-0.552 0.447,-1 1,-1 0.553,0 1,0.448 1,1 0,1.655 -1.346,3.001 -3,3.001 z"
           id="path110"
           style="fill:#ffffff;stroke-width:3.41328526"
           inkscape:connector-curvature="0" />
      </g>
      <g
         id="g116"
         style="fill:#ffffff;stroke-width:3.41328526">
        <path
           d="m 61,30.004 c -1.654,0 -3,-1.346 -3,-3.001 0,-0.552 0.447,-1 1,-1 0.553,0 1,0.448 1,1 0,0.552 0.448,1.001 1,1.001 0.553,0 1,0.448 1,1 0,0.552 -0.447,1 -1,1 z"
           id="path114"
           style="fill:#ffffff;stroke-width:3.41328526"
           inkscape:connector-curvature="0" />
      </g>
      <g
         id="g120"
         style="fill:#ffffff;stroke-width:3.41328526">
        <path
           d="m 59.001,18.995 c -0.553,0 -1,-0.448 -1,-1 0,-0.551 -0.448,-1 -1,-1 -0.552,0 -1,0.449 -1,1 0,0.552 -0.447,1 -1,1 -0.553,0 -1,-0.448 -1,-1 0,-1.654 1.346,-3 3,-3 1.654,0 3,1.346 3,3 0,0.552 -0.447,1 -1,1 z"
           id="path118"
           style="fill:#ffffff;stroke-width:3.41328526"
           inkscape:connector-curvature="0" />
      </g>
      <g
         id="g124"
         style="fill:#ffffff;stroke-width:3.41328526">
        <path
           d="m 51,28.003 c -0.553,0 -1,-0.448 -1,-1 v -9.005 c 0,-0.552 0.447,-1 1,-1 0.553,0 1,0.448 1,1 v 9.005 c 0,0.552 -0.447,1 -1,1 z"
           id="path122"
           style="fill:#ffffff;stroke-width:3.41328526"
           inkscape:connector-curvature="0" />
      </g>
      <g
         id="g128"
         style="fill:#ffffff;stroke-width:3.41328526">
        <path
           d="m 55,28.003 c -0.553,0 -1,-0.448 -1,-1 v -9.008 c 0,-0.552 0.447,-1 1,-1 0.553,0 1,0.448 1,1 v 9.008 c 0,0.552 -0.447,1 -1,1 z"
           id="path126"
           style="fill:#ffffff;stroke-width:3.41328526"
           inkscape:connector-curvature="0" />
      </g>
      <g
         id="g132"
         style="fill:#ffffff;stroke-width:3.41328526">
        <path
           d="m 59.001,28.003 c -0.553,0 -1,-0.448 -1,-1 v -9.008 c 0,-0.552 0.447,-1 1,-1 0.553,0 1,0.448 1,1 v 9.008 c 0,0.552 -0.447,1 -1,1 z"
           id="path130"
           style="fill:#ffffff;stroke-width:3.41328526"
           inkscape:connector-curvature="0" />
      </g>
      <g
         id="g136"
         style="fill:#ffffff;stroke-width:3.41328526">
        <path
           d="m 63,30.004 h -2 c -0.553,0 -1,-0.448 -1,-1 0,-0.552 0.447,-1 1,-1 h 2 c 0.553,0 1,0.448 1,1 0,0.552 -0.447,1 -1,1 z"
           id="path134"
           style="fill:#ffffff;stroke-width:3.41328526"
           inkscape:connector-curvature="0" />
      </g>
    </g>
    <g
       id="g148"
       style="fill:#ffffff;stroke-width:3.41328526">
      <g
         id="g142"
         style="fill:#ffffff;stroke-width:3.41328526">
        <path
           d="m 17.014,18.991 c -0.553,0 -1,-0.448 -1,-1 v -3.998 c 0,-0.552 0.447,-1 1,-1 0.553,0 1,0.448 1,1 v 3.998 c 0,0.552 -0.448,1 -1,1 z"
           id="path140"
           style="fill:#ffffff;stroke-width:3.41328526"
           inkscape:connector-curvature="0" />
      </g>
      <g
         id="g146"
         style="fill:#ffffff;stroke-width:3.41328526">
        <path
           d="m 18.014,16.993 h -2 c -0.553,0 -1,-0.448 -1,-1 0,-0.552 0.447,-1 1,-1 h 2 c 0.553,0 1,0.448 1,1 0,0.552 -0.448,1 -1,1 z"
           id="path144"
           style="fill:#ffffff;stroke-width:3.41328526"
           inkscape:connector-curvature="0" />
      </g>
    </g>
    <g
       id="g152"
       style="fill:#ffffff;stroke-width:3.41328526">
      <path
         d="m 13.03,22 c -0.553,0 -1.005,-0.448 -1.005,-1 0,-0.552 0.442,-1 0.994,-1 h 0.011 c 0.552,0 1,0.448 1,1 0,0.552 -0.448,1 -1,1 z"
         id="path150"
         style="fill:#ffffff;stroke-width:3.41328526"
         inkscape:connector-curvature="0" />
    </g>
    <g
       id="g156"
       style="fill:#ffffff;stroke-width:3.41328526">
      <path
         d="m 19.031,23.998 c -0.553,0 -1.005,-0.448 -1.005,-1 0,-0.552 0.442,-1 0.994,-1 h 0.011 c 0.552,0 1,0.448 1,1 0,0.552 -0.448,1 -1,1 z"
         id="path154"
         style="fill:#ffffff;stroke-width:3.41328526"
         inkscape:connector-curvature="0" />
    </g>
  </g>
</svg>
